<svg width="180" height="60" viewBox="0 0 180 60" fill="none" xmlns="http://www.w3.org/2000/svg">
<rect x="43.6038" y="35.7856" width="16.3929" height="16.3929" rx="2" transform="rotate(180 43.6038 35.7856)" fill="white"/>
<rect x="25.3928" y="54" width="16.3929" height="16.3929" rx="2" transform="rotate(180 25.3928 54)" fill="white"/>
<rect x="43.6038" y="54" width="16.3929" height="16.3929" rx="2" transform="rotate(180 43.6038 54)" fill="white"/>
<path d="M25.3928 17.393C25.3928 18.4976 24.4974 19.393 23.3928 19.393H11C9.8954 19.393 8.99997 18.4976 8.99997 17.393V5.00017C8.99997 3.8956 9.8954 3.00017 11 3.00017H23.3928C24.4974 3.00017 25.3928 3.8956 25.3928 5.00017V17.393Z" fill="white"/>
<path d="M63.3043 53.542V43.3401C63.3043 42.7432 63.3043 42.2366 63.3043 41.8202C63.3043 41.4038 63.3043 41.0151 63.3043 40.6543C63.3043 39.5716 63.1382 38.6208 62.8059 37.8019C62.4737 36.9691 61.9268 36.3237 61.1654 35.8656C60.404 35.3937 59.3865 35.1577 58.1129 35.1577C56.9915 35.1577 55.974 35.4353 55.0603 35.9905C54.1605 36.5457 53.4406 37.3022 52.9007 38.2599C52.3746 39.2038 52.1116 40.2795 52.1116 41.4871L50.1804 40.5293C50.1804 38.7388 50.6026 37.1356 51.4471 35.7199C52.2916 34.2902 53.4198 33.159 54.8319 32.3262C56.2578 31.4934 57.8152 31.077 59.5042 31.077C61.2485 31.077 62.7367 31.417 63.9688 32.0972C65.2147 32.7634 66.163 33.7211 66.8137 34.9703C67.4782 36.2057 67.8104 37.6839 67.8104 39.405C67.8104 40.0435 67.8104 40.7514 67.8104 41.5287C67.8104 42.306 67.8104 43.0555 67.8104 43.7773V53.542H63.3043ZM47.6055 53.542V31.4309H52.1116V53.542H47.6055Z" fill="white"/>
<path d="M79.4411 53.9375C77.8768 53.9375 76.5755 53.6738 75.5372 53.1464C74.4989 52.605 73.6752 51.9041 73.0661 51.0435C72.457 50.1691 72.0278 49.2183 71.7786 48.1912C71.5294 47.1502 71.4048 46.1369 71.4048 45.1514C71.4048 44.6379 71.4048 44.1035 71.4048 43.5483C71.4048 42.9792 71.4048 42.4101 71.4048 41.841V31.4309H75.9317V41.1956C75.9317 41.6953 75.9317 42.188 75.9317 42.6738C75.9317 43.1457 75.9317 43.5899 75.9317 44.0063C75.9317 45.0751 76.0702 46.0606 76.347 46.9628C76.6239 47.8511 77.1085 48.5729 77.8006 49.1281C78.5067 49.6694 79.4896 49.9401 80.7494 49.9401C81.9261 49.9401 82.9505 49.5931 83.8227 48.8991C84.6948 48.1912 85.3732 47.3028 85.8577 46.2341C86.3422 45.1514 86.5845 44.0688 86.5845 42.9861L88.5572 44.0479C88.5572 45.3249 88.3427 46.5533 87.9135 47.7331C87.4982 48.9129 86.896 49.9748 86.1069 50.9186C85.3178 51.8486 84.3557 52.5842 83.2205 53.1255C82.0991 53.6669 80.8393 53.9375 79.4411 53.9375ZM86.5845 53.542V31.4309H91.0906V53.542H86.5845ZM78.1121 28.0997L83.0751 22.8322H86.896L81.4346 28.0997H78.1121Z" fill="white"/>
<path d="M105.412 53.9792C103.197 53.9792 101.21 53.5142 99.4521 52.5842C97.7077 51.6404 96.3303 50.3009 95.3197 48.5659C94.3229 46.8309 93.8246 44.7905 93.8246 42.4448C93.8246 40.0991 94.3229 38.0795 95.3197 36.3861C96.3303 34.6789 97.7077 33.3672 99.4521 32.4511C101.21 31.535 103.197 31.077 105.412 31.077C107.087 31.077 108.575 31.3338 109.876 31.8473C111.178 32.347 112.278 33.0132 113.178 33.8461C114.078 34.6789 114.763 35.595 115.234 36.5943C115.705 37.5937 115.94 38.5931 115.94 39.5924C115.94 39.6063 115.94 39.6271 115.94 39.6549C115.94 39.6826 115.94 39.7104 115.94 39.7382H111.475C111.475 39.6688 111.468 39.5924 111.455 39.5091C111.441 39.412 111.427 39.3218 111.413 39.2385C111.302 38.4196 110.984 37.6909 110.458 37.0524C109.932 36.4139 109.24 35.9073 108.381 35.5325C107.523 35.1577 106.519 34.9703 105.37 34.9703C104.11 34.9703 102.948 35.2479 101.882 35.8032C100.83 36.3445 99.985 37.1703 99.3482 38.2808C98.7114 39.3912 98.393 40.7792 98.393 42.4448C98.393 44.1104 98.7045 45.5123 99.3275 46.6505C99.9643 47.7748 100.809 48.6284 101.861 49.2114C102.927 49.7943 104.097 50.0858 105.37 50.0858C106.741 50.0858 107.862 49.8776 108.734 49.4612C109.606 49.0309 110.264 48.4618 110.707 47.7539C111.15 47.0322 111.406 46.2549 111.475 45.4221H115.94C115.94 46.4214 115.712 47.4347 115.255 48.4618C114.798 49.4751 114.126 50.3981 113.24 51.2309C112.354 52.0637 111.254 52.73 109.939 53.2296C108.637 53.7293 107.128 53.9792 105.412 53.9792Z" fill="white"/>
<path d="M123.597 21V53.542H119.153V21H123.597Z" fill="white"/>
<path d="M129.152 44.0688V40.5502H145.391L144.768 41.5912C144.768 41.5079 144.768 41.4246 144.768 41.3413C144.768 41.2442 144.768 41.1609 144.768 41.0915C144.768 39.9672 144.526 38.9331 144.041 37.9893C143.557 37.0315 142.83 36.2681 141.861 35.6991C140.905 35.1161 139.708 34.8246 138.268 34.8246C136.828 34.8246 135.562 35.1369 134.468 35.7615C133.388 36.3722 132.544 37.2467 131.935 38.3849C131.339 39.5091 131.042 40.8625 131.042 42.4448C131.042 44.0549 131.332 45.4429 131.914 46.6088C132.495 47.7609 133.333 48.6492 134.427 49.2738C135.52 49.8984 136.828 50.2107 138.351 50.2107C139.417 50.2107 140.338 50.1066 141.113 49.8984C141.902 49.6763 142.546 49.3849 143.044 49.024C143.557 48.6631 143.944 48.2744 144.207 47.858C144.47 47.4278 144.622 47.0044 144.664 46.588H149.149C149.066 47.4902 148.769 48.3855 148.256 49.2738C147.758 50.1483 147.045 50.9464 146.118 51.6681C145.204 52.376 144.083 52.9451 142.754 53.3754C141.438 53.7918 139.923 54 138.206 54C135.908 54 133.894 53.5142 132.163 52.5426C130.433 51.571 129.083 50.2246 128.114 48.5035C127.145 46.7685 126.66 44.7836 126.66 42.5489C126.66 40.2726 127.152 38.2738 128.135 36.5527C129.117 34.8315 130.481 33.4921 132.225 32.5344C133.97 31.5628 135.97 31.077 138.227 31.077C140.525 31.077 142.511 31.5628 144.186 32.5344C145.875 33.506 147.177 34.8454 148.09 36.5527C149.004 38.2599 149.461 40.224 149.461 42.4448C149.461 42.7085 149.454 43.0139 149.44 43.3609C149.426 43.7079 149.406 43.9438 149.378 44.0688H129.152Z" fill="white"/>
<path d="M163.06 53.9584C160.789 53.9584 158.782 53.4656 157.038 52.4801C155.307 51.4946 153.951 50.1413 152.968 48.4202C151.999 46.6852 151.514 44.7003 151.514 42.4656C151.514 40.2448 151.999 38.2808 152.968 36.5735C153.951 34.8524 155.307 33.5129 157.038 32.5552C158.782 31.5836 160.789 31.0978 163.06 31.0978C165.33 31.0978 167.331 31.5836 169.061 32.5552C170.805 33.5129 172.162 34.8524 173.131 36.5735C174.114 38.2808 174.605 40.2448 174.605 42.4656C174.605 44.7003 174.114 46.6852 173.131 48.4202C172.162 50.1413 170.805 51.4946 169.061 52.4801C167.331 53.4656 165.33 53.9584 163.06 53.9584ZM163.06 50.0858C164.444 50.0858 165.662 49.7735 166.715 49.1489C167.767 48.5243 168.59 47.6429 169.186 46.5047C169.781 45.3527 170.079 44.0063 170.079 42.4656C170.079 40.9388 169.781 39.6132 169.186 38.489C168.59 37.3647 167.767 36.4972 166.715 35.8864C165.662 35.2757 164.444 34.9703 163.06 34.9703C161.689 34.9703 160.471 35.2757 159.405 35.8864C158.353 36.4972 157.529 37.3647 156.934 38.489C156.339 39.6132 156.041 40.9388 156.041 42.4656C156.041 44.0063 156.339 45.3527 156.934 46.5047C157.529 47.6429 158.353 48.5243 159.405 49.1489C160.471 49.7735 161.689 50.0858 163.06 50.0858Z" fill="white"/>
</svg>
