<svg width="609" height="850" viewBox="0 0 609 850" fill="none" xmlns="http://www.w3.org/2000/svg">
<g filter="url(#filter0_bf_1484_1423)">
<path d="M436.247 379.354L270 483.398L432.174 585.59L596.2 484.879L436.247 379.354Z" fill="url(#paint0_linear_1484_1423)"/>
<path d="M270 692.225V483.398L432.174 585.59V796.269L270 692.225Z" fill="#8F67DF"/>
<path d="M596.2 692.966V484.879L432.174 585.59V796.269L596.2 692.966Z" fill="url(#paint1_linear_1484_1423)"/>
</g>
<g filter="url(#filter1_bf_1484_1423)">
<path d="M224.247 499.718L58 603.762L220.174 705.954L384.2 605.243L224.247 499.718Z" fill="url(#paint2_linear_1484_1423)"/>
<path d="M58 812.589V603.762L220.174 705.954V916.632L58 812.589Z" fill="#8F67DF"/>
<path d="M384.2 813.329V605.243L220.174 705.954V916.632L384.2 813.329Z" fill="url(#paint3_linear_1484_1423)"/>
</g>
<g filter="url(#filter2_bf_1484_1423)">
<path d="M443.18 124L276.933 228.043L439.107 330.235L603.133 229.524L443.18 124Z" fill="url(#paint4_linear_1484_1423)"/>
<path d="M276.933 436.871V228.043L439.107 330.236V540.914L276.933 436.871Z" fill="#8F67DF"/>
<path d="M603.132 437.611V229.524L439.106 330.235V540.914L603.132 437.611Z" fill="url(#paint5_linear_1484_1423)"/>
</g>
<g filter="url(#filter3_bf_1484_1423)">
<path d="M175.247 -84L9 20.0434L171.174 122.235L335.2 21.5244L175.247 -84Z" fill="url(#paint6_linear_1484_1423)"/>
<path d="M9 228.871V20.0435L171.174 122.236V332.914L9 228.871Z" fill="#8F67DF"/>
<path d="M335.2 229.611V21.5244L171.174 122.235V332.914L335.2 229.611Z" fill="url(#paint7_linear_1484_1423)"/>
</g>
<defs>
<filter id="filter0_bf_1484_1423" x="265" y="374.354" width="336.2" height="426.914" filterUnits="userSpaceOnUse" color-interpolation-filters="sRGB">
<feFlood flood-opacity="0" result="BackgroundImageFix"/>
<feGaussianBlur in="BackgroundImageFix" stdDeviation="2.25"/>
<feComposite in2="SourceAlpha" operator="in" result="effect1_backgroundBlur_1484_1423"/>
<feBlend mode="normal" in="SourceGraphic" in2="effect1_backgroundBlur_1484_1423" result="shape"/>
<feGaussianBlur stdDeviation="2.5" result="effect2_foregroundBlur_1484_1423"/>
</filter>
<filter id="filter1_bf_1484_1423" x="53" y="494.718" width="336.2" height="426.914" filterUnits="userSpaceOnUse" color-interpolation-filters="sRGB">
<feFlood flood-opacity="0" result="BackgroundImageFix"/>
<feGaussianBlur in="BackgroundImageFix" stdDeviation="2.25"/>
<feComposite in2="SourceAlpha" operator="in" result="effect1_backgroundBlur_1484_1423"/>
<feBlend mode="normal" in="SourceGraphic" in2="effect1_backgroundBlur_1484_1423" result="shape"/>
<feGaussianBlur stdDeviation="2.5" result="effect2_foregroundBlur_1484_1423"/>
</filter>
<filter id="filter2_bf_1484_1423" x="271.333" y="118.4" width="337.4" height="428.114" filterUnits="userSpaceOnUse" color-interpolation-filters="sRGB">
<feFlood flood-opacity="0" result="BackgroundImageFix"/>
<feGaussianBlur in="BackgroundImageFix" stdDeviation="2.8"/>
<feComposite in2="SourceAlpha" operator="in" result="effect1_backgroundBlur_1484_1423"/>
<feBlend mode="normal" in="SourceGraphic" in2="effect1_backgroundBlur_1484_1423" result="shape"/>
<feGaussianBlur stdDeviation="2.5" result="effect2_foregroundBlur_1484_1423"/>
</filter>
<filter id="filter3_bf_1484_1423" x="0" y="-93" width="344.2" height="434.914" filterUnits="userSpaceOnUse" color-interpolation-filters="sRGB">
<feFlood flood-opacity="0" result="BackgroundImageFix"/>
<feGaussianBlur in="BackgroundImageFix" stdDeviation="2.8"/>
<feComposite in2="SourceAlpha" operator="in" result="effect1_backgroundBlur_1484_1423"/>
<feBlend mode="normal" in="SourceGraphic" in2="effect1_backgroundBlur_1484_1423" result="shape"/>
<feGaussianBlur stdDeviation="4.5" result="effect2_foregroundBlur_1484_1423"/>
</filter>
<linearGradient id="paint0_linear_1484_1423" x1="453.279" y1="397.868" x2="549.547" y2="525.237" gradientUnits="userSpaceOnUse">
<stop stop-color="#DA77E2"/>
<stop offset="1" stop-color="#906FE8"/>
</linearGradient>
<linearGradient id="paint1_linear_1484_1423" x1="514.372" y1="585.96" x2="514.187" y2="796.269" gradientUnits="userSpaceOnUse">
<stop offset="0.11" stop-color="#AE71E8"/>
<stop offset="0.73" stop-color="#7052AF"/>
</linearGradient>
<linearGradient id="paint2_linear_1484_1423" x1="241.279" y1="518.231" x2="337.547" y2="645.601" gradientUnits="userSpaceOnUse">
<stop stop-color="#DA77E2"/>
<stop offset="1" stop-color="#906FE8"/>
</linearGradient>
<linearGradient id="paint3_linear_1484_1423" x1="302.372" y1="706.324" x2="302.187" y2="916.632" gradientUnits="userSpaceOnUse">
<stop offset="0.11" stop-color="#AE71E8"/>
<stop offset="0.73" stop-color="#7052AF"/>
</linearGradient>
<linearGradient id="paint4_linear_1484_1423" x1="460.212" y1="142.513" x2="556.48" y2="269.883" gradientUnits="userSpaceOnUse">
<stop stop-color="#DA77E2"/>
<stop offset="1" stop-color="#906FE8"/>
</linearGradient>
<linearGradient id="paint5_linear_1484_1423" x1="521.304" y1="330.606" x2="521.119" y2="540.914" gradientUnits="userSpaceOnUse">
<stop offset="0.11" stop-color="#AE71E8"/>
<stop offset="0.73" stop-color="#7052AF"/>
</linearGradient>
<linearGradient id="paint6_linear_1484_1423" x1="192.279" y1="-65.4869" x2="288.547" y2="61.8829" gradientUnits="userSpaceOnUse">
<stop stop-color="#DA77E2"/>
<stop offset="1" stop-color="#906FE8"/>
</linearGradient>
<linearGradient id="paint7_linear_1484_1423" x1="253.372" y1="122.606" x2="253.187" y2="332.914" gradientUnits="userSpaceOnUse">
<stop offset="0.11" stop-color="#AE71E8"/>
<stop offset="0.73" stop-color="#7052AF"/>
</linearGradient>
</defs>
</svg>
